<?xml version="1.0" encoding="UTF-8"?>
<svg version="1.1" xmlns="http://www.w3.org/2000/svg" width="480" height="479">
<path d="M0 0 C0.62922363 0.53077148 1.25844727 1.06154297 1.90673828 1.60839844 C2.81383545 2.36975098 2.81383545 2.36975098 3.73925781 3.14648438 C6.61023378 5.63219919 8.95546929 7.74130118 10.28173828 11.35839844 C10.94173828 11.35839844 11.60173828 11.35839844 12.28173828 11.35839844 C14.07029425 13.48632143 15.71824988 15.60995053 17.34423828 17.85839844 C18.07743286 18.87075562 18.07743286 18.87075562 18.82543945 19.90356445 C38.2027153 47.16770944 46.23363834 78.82352646 41.09423828 112.10839844 C38.78076971 125.70578555 34.51000117 137.67167514 28.05126953 149.83496094 C26.45794465 153.0075416 25.1295856 155.91214845 24.28173828 159.35839844 C25.78963307 162.05771824 25.78963307 162.05771824 28.28173828 164.35839844 C28.95350098 165.03088623 29.62526367 165.70337402 30.31738281 166.39624023 C33.66597155 169.7449059 37.02223585 173.08586768 40.37716675 176.42817688 C43.76635259 179.80573892 47.15367206 183.18516723 50.54037285 186.56522083 C53.10208574 189.12172051 55.66472592 191.67727618 58.22949219 194.23071289 C60.72732779 196.71759281 63.22263092 199.20698914 65.71628189 201.6980648 C67.11194666 203.0910223 68.51014803 204.4814368 69.90841675 205.8717804 C73.60430223 209.56734287 77.25292356 213.25292135 80.64770508 217.22875977 C85.09825875 222.4085073 89.98681774 227.15825332 94.83723259 231.95849228 C96.5922609 233.6959323 98.34355189 235.43706279 100.09388733 237.17922974 C105.06473211 242.12577291 110.04141193 247.0664164 115.0222168 252.00292969 C118.08190166 255.0359143 121.13676371 258.07368671 124.18866158 261.11450577 C125.35064738 262.27027343 126.51452843 263.42413883 127.6803112 264.57607651 C129.30059791 266.17725838 130.9147334 267.78440353 132.52758789 269.39306641 C133.44801376 270.30603485 134.36843964 271.2190033 135.3167572 272.15963745 C137.28173828 274.35839844 137.28173828 274.35839844 137.28173828 276.35839844 C137.85923828 276.54402344 138.43673828 276.72964844 139.03173828 276.92089844 C142.90792602 279.39735171 144.68334548 283.4634879 146.03173828 287.73339844 C146.73556468 295.12357558 147.14673128 302.33507094 142.64892578 308.65136719 C137.60200233 314.71757126 133.15383586 318.65166285 125.23876953 319.79980469 C116.16521802 320.29975418 110.45932213 317.9142217 103.62634277 311.90179443 C99.1422955 307.73539976 94.87205643 303.35928943 90.59423828 298.98339844 C89.30280018 297.68044268 88.01048775 296.37835292 86.71728516 295.07714844 C85.46325209 293.80968842 84.20997114 292.54148371 82.95751953 291.27246094 C82.39067947 290.69823395 81.82383942 290.12400696 81.23982239 289.53237915 C78.44044538 286.66741084 75.74544227 283.75636437 73.14550781 280.70898438 C68.54421163 275.40420342 63.52849597 270.50994809 58.54104805 265.57310867 C56.75241778 263.80206081 54.96751937 262.02732703 53.18357849 260.2515564 C48.11715073 255.20943496 43.04489395 250.17320591 37.96850586 245.14111328 C34.85046645 242.04977376 31.73724914 238.95364647 28.62699699 235.85447311 C27.44268243 234.67637707 26.25647252 233.50018328 25.06836128 232.32591629 C23.41694233 230.69360151 21.77167218 229.0553223 20.12768555 227.41552734 C19.3867717 226.68775589 19.3867717 226.68775589 18.63088989 225.94528198 C15.28173828 222.58629835 15.28173828 222.58629835 15.28173828 220.35839844 C14.72486328 220.13152344 14.16798828 219.90464844 13.59423828 219.67089844 C8.45581911 216.75449837 5.01116807 211.83371418 1.28173828 207.35839844 C-0.36314465 205.67022911 -2.03163714 204.00486529 -3.71826172 202.35839844 C-4.99042229 201.08889373 -6.26120625 199.81800835 -7.53076172 198.54589844 C-8.13533203 197.94132813 -8.73990234 197.33675781 -9.36279297 196.71386719 C-9.81009766 196.2665625 -10.25740234 195.81925781 -10.71826172 195.35839844 C-15.60438982 196.82802456 -19.90401583 198.89030542 -24.40576172 201.23339844 C-53.07023706 215.74293879 -83.89542849 217.56146058 -114.45166016 208.10449219 C-130.81054065 202.71966466 -146.29556448 193.34203985 -158.71826172 181.35839844 C-158.71826172 180.69839844 -158.71826172 180.03839844 -158.71826172 179.35839844 C-159.57871094 179.01035156 -159.57871094 179.01035156 -160.45654297 178.65527344 C-171.60609385 172.262094 -180.67248239 153.66963222 -185.71826172 142.35839844 C-186.45689453 140.78638672 -186.45689453 140.78638672 -187.21044922 139.18261719 C-199.27946109 111.7121051 -199.21260576 78.64463289 -188.78076172 50.67089844 C-179.40260843 26.93125845 -163.47012688 5.13582766 -141.71826172 -8.64160156 C-141.04150391 -9.13660156 -140.36474609 -9.63160156 -139.66748047 -10.14160156 C-97.64869786 -40.52806582 -38.11208903 -31.68481714 0 0 Z " fill="#1FD660" transform="translate(289.71826171875,99.6416015625)"/>
<path d="M0 0 C0.62922363 0.53077148 1.25844727 1.06154297 1.90673828 1.60839844 C2.81383545 2.36975098 2.81383545 2.36975098 3.73925781 3.14648438 C6.61023378 5.63219919 8.95546929 7.74130118 10.28173828 11.35839844 C10.94173828 11.35839844 11.60173828 11.35839844 12.28173828 11.35839844 C14.07029425 13.48632143 15.71824988 15.60995053 17.34423828 17.85839844 C18.07743286 18.87075562 18.07743286 18.87075562 18.82543945 19.90356445 C38.2027153 47.16770944 46.23363834 78.82352646 41.09423828 112.10839844 C38.78076971 125.70578555 34.51000117 137.67167514 28.05126953 149.83496094 C26.45794465 153.0075416 25.1295856 155.91214845 24.28173828 159.35839844 C25.78963307 162.05771824 25.78963307 162.05771824 28.28173828 164.35839844 C28.95350098 165.03088623 29.62526367 165.70337402 30.31738281 166.39624023 C33.66597155 169.7449059 37.02223585 173.08586768 40.37716675 176.42817688 C43.76635259 179.80573892 47.15367206 183.18516723 50.54037285 186.56522083 C53.10208574 189.12172051 55.66472592 191.67727618 58.22949219 194.23071289 C60.72732779 196.71759281 63.22263092 199.20698914 65.71628189 201.6980648 C67.11194666 203.0910223 68.51014803 204.4814368 69.90841675 205.8717804 C73.60430223 209.56734287 77.25292356 213.25292135 80.64770508 217.22875977 C85.09825875 222.4085073 89.98681774 227.15825332 94.83723259 231.95849228 C96.5922609 233.6959323 98.34355189 235.43706279 100.09388733 237.17922974 C105.06473211 242.12577291 110.04141193 247.0664164 115.0222168 252.00292969 C118.08190166 255.0359143 121.13676371 258.07368671 124.18866158 261.11450577 C125.35064738 262.27027343 126.51452843 263.42413883 127.6803112 264.57607651 C129.30059791 266.17725838 130.9147334 267.78440353 132.52758789 269.39306641 C133.44801376 270.30603485 134.36843964 271.2190033 135.3167572 272.15963745 C137.28173828 274.35839844 137.28173828 274.35839844 137.28173828 276.35839844 C137.85923828 276.54402344 138.43673828 276.72964844 139.03173828 276.92089844 C142.90792602 279.39735171 144.68334548 283.4634879 146.03173828 287.73339844 C146.73556468 295.12357558 147.14673128 302.33507094 142.64892578 308.65136719 C137.60200233 314.71757126 133.15383586 318.65166285 125.23876953 319.79980469 C116.16521802 320.29975418 110.45932213 317.9142217 103.62634277 311.90179443 C99.1422955 307.73539976 94.87205643 303.35928943 90.59423828 298.98339844 C89.30280018 297.68044268 88.01048775 296.37835292 86.71728516 295.07714844 C85.46325209 293.80968842 84.20997114 292.54148371 82.95751953 291.27246094 C82.39067947 290.69823395 81.82383942 290.12400696 81.23982239 289.53237915 C78.44044538 286.66741084 75.74544227 283.75636437 73.14550781 280.70898438 C68.54421163 275.40420342 63.52849597 270.50994809 58.54104805 265.57310867 C56.75241778 263.80206081 54.96751937 262.02732703 53.18357849 260.2515564 C48.11715073 255.20943496 43.04489395 250.17320591 37.96850586 245.14111328 C34.85046645 242.04977376 31.73724914 238.95364647 28.62699699 235.85447311 C27.44268243 234.67637707 26.25647252 233.50018328 25.06836128 232.32591629 C23.41694233 230.69360151 21.77167218 229.0553223 20.12768555 227.41552734 C19.3867717 226.68775589 19.3867717 226.68775589 18.63088989 225.94528198 C15.28173828 222.58629835 15.28173828 222.58629835 15.28173828 220.35839844 C14.72486328 220.13152344 14.16798828 219.90464844 13.59423828 219.67089844 C8.45581911 216.75449837 5.01116807 211.83371418 1.28173828 207.35839844 C-0.36314465 205.67022911 -2.03163714 204.00486529 -3.71826172 202.35839844 C-4.99042229 201.08889373 -6.26120625 199.81800835 -7.53076172 198.54589844 C-8.13533203 197.94132813 -8.73990234 197.33675781 -9.36279297 196.71386719 C-9.81009766 196.2665625 -10.25740234 195.81925781 -10.71826172 195.35839844 C-15.60438982 196.82802456 -19.90401583 198.89030542 -24.40576172 201.23339844 C-53.07023706 215.74293879 -83.89542849 217.56146058 -114.45166016 208.10449219 C-130.81054065 202.71966466 -146.29556448 193.34203985 -158.71826172 181.35839844 C-158.71826172 180.69839844 -158.71826172 180.03839844 -158.71826172 179.35839844 C-159.57871094 179.01035156 -159.57871094 179.01035156 -160.45654297 178.65527344 C-171.60609385 172.262094 -180.67248239 153.66963222 -185.71826172 142.35839844 C-186.45689453 140.78638672 -186.45689453 140.78638672 -187.21044922 139.18261719 C-199.27946109 111.7121051 -199.21260576 78.64463289 -188.78076172 50.67089844 C-179.40260843 26.93125845 -163.47012688 5.13582766 -141.71826172 -8.64160156 C-141.04150391 -9.13660156 -140.36474609 -9.63160156 -139.66748047 -10.14160156 C-97.64869786 -40.52806582 -38.11208903 -31.68481714 0 0 Z M-148.34326172 32.10839844 C-161.49833476 47.79566863 -169.69224494 67.93133721 -170.71826172 88.35839844 C-170.77111328 89.31875 -170.82396484 90.27910156 -170.87841797 91.26855469 C-171.14341661 100.56655044 -169.62122468 109.30427663 -167.71826172 118.35839844 C-167.52490234 119.33679688 -167.33154297 120.31519531 -167.13232422 121.32324219 C-165.13370317 129.95365125 -160.91262222 137.62549317 -156.71826172 145.35839844 C-156.20650391 146.3290625 -155.69474609 147.29972656 -155.16748047 148.29980469 C-145.60254483 164.88396957 -129.78481524 176.46155806 -112.65576172 184.23339844 C-111.75579468 184.64525391 -111.75579468 184.64525391 -110.83764648 185.06542969 C-100.08567909 189.64837563 -89.18275473 190.84764317 -77.59326172 190.73339844 C-76.40861328 190.745 -75.22396484 190.75660156 -74.00341797 190.76855469 C-66.42292352 190.74348139 -59.91355062 189.69622341 -52.71826172 187.35839844 C-51.67154297 187.07738281 -50.62482422 186.79636719 -49.54638672 186.50683594 C-26.67771112 179.64623326 -8.08631785 161.93469052 3.28173828 141.35839844 C14.43934798 118.82002684 18.75326019 92.29207751 11.48095703 67.79589844 C2.38107267 41.71153935 -13.71092984 20.64354817 -38.70654297 8.35449219 C-77.58828385 -9.90793154 -119.68913472 1.24510972 -148.34326172 32.10839844 Z " fill="#000000" transform="translate(289.71826171875,99.6416015625)"/>
<path d="M0 0 C0.71769562 0.00126892 1.43539124 0.00253784 2.17483521 0.00384521 C12.38025625 0.03831192 22.40039997 0.10594874 32.4375 2.1875 C33.36578613 2.37586426 34.29407227 2.56422852 35.25048828 2.75830078 C70.31442848 10.06442848 70.31442848 10.06442848 82.4375 22.1875 C83.1359127 29.17162698 83.1359127 29.17162698 80.375 33.1875 C76.66502984 35.71343713 74.86950068 35.57349796 70.4375 35.1875 C67.21875 33.83203125 67.21875 33.83203125 63.9375 32 C35.66345955 17.09454062 0.48439209 15.90985413 -30.5625 21.1875 C-32.57071964 21.82898136 -34.57271638 22.49093299 -36.5625 23.1875 C-42.75152439 23.8277439 -42.75152439 23.8277439 -45.9375 21.3125 C-48.8334923 17.52543314 -49.12935059 14.96524071 -48.5625 10.1875 C-44.07406979 5.49376305 -40.02755393 4.11816506 -33.75 2.9375 C-32.99396484 2.77765625 -32.23792969 2.6178125 -31.45898438 2.453125 C-20.98362559 0.30982908 -10.66737013 -0.01931356 0 0 Z " fill="#F8FDFA" transform="translate(196.5625,149.8125)"/>
<path d="M0 0 C0.73372833 -0.0043103 1.46745667 -0.00862061 2.22341919 -0.01306152 C15.89870899 -0.04741052 29.19549428 1.66059019 42.1875 6.125 C42.91839844 6.3715332 43.64929688 6.61806641 44.40234375 6.87207031 C52.95992609 9.90165961 63.76561874 14.01561874 70.25 20.5 C70.57683936 24.02986508 70.60374004 26.63775866 69.25 29.9375 C66.67605751 31.94839257 64.61287753 31.87696879 61.41748047 31.80981445 C57.69264576 31.27739553 54.955548 29.34150597 51.8125 27.375 C28.08248203 13.89233833 -0.48827701 14.26224258 -26.75 18.5 C-27.74 18.83 -28.73 19.16 -29.75 19.5 C-31.90625 19.703125 -31.90625 19.703125 -34.25 19.75 C-35.0234375 19.77578125 -35.796875 19.8015625 -36.59375 19.828125 C-38.75 19.5 -38.75 19.5 -40.50390625 18.19921875 C-42.60383553 15.33567883 -42.16941373 12.91522608 -41.75 9.5 C-37.12334191 3.27180642 -28.45790866 2.21373436 -21.23583984 0.93945312 C-14.17832816 0.0497262 -7.10526703 0.00717618 0 0 Z " fill="#F7FDF9" transform="translate(195.75,182.5)"/>
<path d="M0 0 C0.33 0.33 0.66 0.66 1 1 C0.75 4.4375 0.75 4.4375 0 8 C-3 10 -3 10 -5.73828125 9.86328125 C-8.87207663 9.03385756 -11.42567003 7.84826394 -14.24682617 6.26953125 C-35.14842896 -5.38424955 -61.97917036 -6.16621536 -85 -1 C-85.99 -0.505 -85.99 -0.505 -87 0 C-92.25465839 0.44720497 -92.25465839 0.44720497 -94.875 -1.125 C-96.57452613 -3.95754356 -96.52841321 -5.76346907 -96 -9 C-92.15648724 -12.94719133 -88.22822567 -13.98725606 -82.9375 -14.75 C-82.12531006 -14.86996338 -81.31312012 -14.98992676 -80.47631836 -15.11352539 C-52.43900519 -18.76109817 -23.73716698 -16.4706873 0 0 Z " fill="#F6FDF8" transform="translate(254,230)"/>
</svg>
